<?xml version="1.0" standalone="no"?>
<!DOCTYPE svg PUBLIC "-//W3C//DTD SVG 1.1//EN" "http://www.w3.org/Graphics/SVG/1.1/DTD/svg11.dtd">
<svg width="1024px" height="1024px" version="1.1" xmlns="http://www.w3.org/2000/svg" xmlns:xlink="http://www.w3.org/1999/xlink" xml:space="preserve" style="fill-rule:evenodd;clip-rule:evenodd;stroke-linejoin:round;stroke-miterlimit:1.41421;">
    <g>
        <g>
            <path d="M112.138,652.029C112.585,650.984 112.463,649.779 111.807,648.844L78.4862,601.334L146.681,590.049L146.698,660.234C146.698,661.2 147.125,662.118 147.866,662.743C148.292,663.101 148.801,663.34 149.337,663.446C149.637,663.665 149.975,663.846 150.354,663.951L244.053,690.572L83.9134,717.804ZM208.203,529.824L208.142,601.364C208.142,601.423 208.159,601.477 208.159,601.535C208.166,601.675 208.179,601.812 208.207,601.945C208.22,602.037 208.241,602.126 208.268,602.214C208.302,602.344 208.343,602.467 208.394,602.59C208.428,602.679 208.466,602.764 208.507,602.846C208.568,602.965 208.64,603.078 208.712,603.191C208.766,603.262 208.811,603.344 208.869,603.412C208.964,603.529 209.073,603.634 209.183,603.744C209.227,603.788 209.261,603.836 209.309,603.877C209.319,603.887 209.333,603.894 209.347,603.901C209.408,603.955 209.476,603.993 209.541,604.041C209.644,604.112 209.749,604.187 209.855,604.249C209.927,604.286 210.002,604.32 210.077,604.351C210.193,604.406 210.313,604.454 210.432,604.491C210.466,604.501 210.5,604.522 210.534,604.532L303.814,631.033L153.272,656.35L153.242,538.836ZM794.945,597.958L874.66,542.246C875.018,541.996 875.305,541.682 875.53,541.338C876.445,540.744 877.036,539.727 877.036,538.586L877.056,466.33L940.111,456.103L911.865,521.929C911.415,522.977 911.541,524.182 912.196,525.117L945.531,572.641ZM214.822,479.208L815.913,378.6L815.944,496.377L214.726,597.48ZM301.38,536.478L300.663,537.962C300.046,539.12 299.27,540.385 298.338,541.758C297.405,543.131 296.338,544.431 295.138,545.66C293.937,546.888 292.579,547.98 291.063,548.937C289.547,549.894 287.894,550.522 286.106,550.821C284.159,551.147 282.364,550.839 280.719,549.898C279.075,548.956 277.577,547.679 276.225,546.067C274.874,544.454 273.667,542.655 272.605,540.67C271.543,538.685 270.612,536.84 269.813,535.135C269.014,533.43 268.343,532.002 267.798,530.849C267.254,529.696 266.819,529.12 266.495,529.12C265.794,529.129 265.152,529.737 264.57,530.943C263.987,532.149 263.484,533.666 263.06,535.495C262.636,537.323 262.28,539.316 261.992,541.473C261.704,543.63 261.462,545.658 261.266,547.556C261.07,549.455 260.924,551.088 260.829,552.455C260.733,553.823 260.681,554.643 260.673,554.915C260.718,557.124 260.603,559.104 260.328,560.853C260.053,562.603 259.611,564.083 259.003,565.293C258.394,566.503 257.61,567.392 256.65,567.958C255.69,568.524 254.597,568.693 253.369,568.466C252.703,568.362 251.86,567.042 250.841,564.509C249.823,561.976 248.81,558.671 247.803,554.595C246.797,550.518 245.858,545.876 244.986,540.669C244.115,535.461 243.491,530.117 243.115,524.638C242.738,519.158 242.684,513.746 242.953,508.402C243.221,503.057 243.992,498.211 245.264,493.861C246.537,489.511 248.363,485.88 250.742,482.967C253.12,480.055 256.256,478.273 260.148,477.622C262.358,477.252 263.947,477.865 264.917,479.46C265.887,481.055 266.393,483.268 266.434,486.1C266.475,488.932 266.175,492.227 265.533,495.985C264.891,499.742 264.05,503.601 263.009,507.56C261.968,511.519 260.859,515.396 259.682,519.188C258.506,522.981 257.405,526.342 256.381,529.272C256.751,531.481 257.121,533.609 257.49,535.656C257.86,537.703 258.225,539.643 258.586,541.475C259.276,538.494 260.099,535.328 261.052,531.978C262.006,528.628 263.014,525.525 264.077,522.671C265.141,519.816 266.24,517.415 267.374,515.468C268.508,513.521 269.575,512.464 270.574,512.296C271.731,512.103 272.856,512.766 273.949,514.287C275.042,515.807 276.121,517.735 277.188,520.071C278.255,522.407 279.346,524.969 280.462,527.756C281.577,530.544 282.721,533.097 283.893,535.415C285.065,537.734 286.289,539.638 287.566,541.127C288.842,542.617 290.191,543.243 291.611,543.005C292.663,542.829 293.599,542.443 294.418,541.846C295.238,541.249 295.941,540.604 296.528,539.911C297.159,539.157 297.719,538.306 298.21,537.359C298.543,536.762 298.853,536.197 299.142,535.662C299.388,535.188 299.602,534.774 299.786,534.418L300.109,533.921C299.299,532.25 298.779,530.579 298.507,528.955C298.163,526.903 298.188,524.628 298.581,522.129C298.974,519.63 299.777,517.238 300.99,514.953C302.203,512.668 303.854,510.661 305.944,508.932C308.034,507.204 310.578,506.089 313.577,505.587C315.996,505.182 318.002,505.211 319.594,505.675C321.185,506.139 322.442,506.861 323.363,507.843C324.284,508.824 324.921,509.961 325.272,511.254C325.624,512.547 325.796,513.816 325.788,515.061C325.692,516.429 325.288,517.97 324.574,519.685C323.861,521.4 323.001,523.125 321.993,524.862C320.986,526.599 319.904,528.294 318.748,529.947C317.592,531.601 316.549,533.046 315.621,534.283C316.955,535.79 318.485,536.94 320.213,537.732C321.941,538.525 323.857,538.745 325.961,538.393C327.486,538.137 329.091,537.545 330.773,536.614C332.202,535.78 333.839,534.573 335.683,532.994C337.482,531.454 339.303,529.281 341.227,526.34C340.172,524.084 339.269,521.769 338.469,519.347C337.538,516.529 336.738,513.689 336.07,510.826C335.402,507.964 334.861,505.297 334.447,502.824C333.898,495.346 334.135,488.52 335.157,482.346C335.585,479.733 336.206,477.142 337.019,474.572C337.833,472.003 338.912,469.646 340.257,467.501C341.601,465.356 343.244,463.54 345.185,462.053C347.126,460.565 349.438,459.597 352.121,459.148C354.803,458.699 356.746,459.321 357.948,461.012C359.151,462.703 359.818,465.079 359.952,468.139C360.086,471.199 359.774,474.752 359.019,478.799C358.263,482.846 357.273,487.027 356.048,491.342C354.238,497.808 351.914,504.875 349.001,512.661C349.957,516.022 351.118,519.146 352.399,521.883C353.83,524.942 355.379,527.332 357.046,529.054C358.713,530.776 360.441,531.487 362.229,531.188C363.141,531.143 364.105,530.766 365.122,530.055C365.998,529.476 366.991,528.539 368.099,527.245C368.999,526.194 369.916,524.756 370.815,522.899L370.785,521.726C370.704,518.982 370.716,516.465 370.819,514.177C370.923,511.888 371.187,509.992 371.611,508.488C372.036,506.984 372.747,506.149 373.747,505.981C374.431,505.867 375.069,506.287 375.661,507.243C376.254,508.198 376.877,509.418 377.531,510.904C378.186,512.39 378.901,514.001 379.678,515.736C380.455,517.472 381.355,519.051 382.378,520.476C383.4,521.9 384.565,523.043 385.872,523.906C387.179,524.769 388.726,525.05 390.515,524.751C391.462,524.593 392.417,524.081 393.381,523.217C394.345,522.353 395.096,521.186 395.634,519.717C396.172,518.248 396.386,516.536 396.275,514.581C396.164,512.626 395.529,510.447 394.371,508.046C393.615,506.442 392.584,504.965 391.277,503.616C389.97,502.266 388.551,501.138 387.02,500.232C385.489,499.325 383.92,498.669 382.31,498.262C380.701,497.855 379.16,497.775 377.687,498.022C376.109,498.286 374.869,498.629 373.966,499.05C373.063,499.472 372.355,499.847 371.843,500.176C371.33,500.505 370.933,500.72 370.653,500.821C370.372,500.922 370.013,500.793 369.574,500.434C369.249,500.11 369.361,499.645 369.909,499.04C370.456,498.434 371.33,497.842 372.531,497.262C373.732,496.683 375.216,496.178 376.982,495.747C378.749,495.316 380.662,495.118 382.723,495.151C385.002,495.202 387.383,495.615 389.865,496.389C392.347,497.164 394.833,498.532 397.325,500.495C399.632,502.326 401.56,504.315 403.109,506.462C404.658,508.609 405.821,510.793 406.598,513.016C407.376,515.238 407.768,517.416 407.773,519.551C407.779,521.686 407.401,523.629 406.639,525.378C405.878,527.128 404.719,528.606 403.164,529.813C401.608,531.02 399.673,531.816 397.359,532.204C395.097,532.582 392.951,532.279 390.92,531.294C388.89,530.309 387.085,529.137 385.506,527.779C383.681,526.246 381.94,524.402 380.281,522.246C380.766,526.437 381.463,530.281 382.373,533.779C383.283,537.277 384.157,540.402 384.997,543.154C385.836,545.907 386.499,548.256 386.987,550.202C387.475,552.149 387.509,553.644 387.089,554.687C386.791,555.494 386.31,556.656 385.644,558.173C384.979,559.691 384.248,561.138 383.451,562.515C382.654,563.892 381.839,565.002 381.007,565.844C380.174,566.686 379.442,566.836 378.811,566.293C378.433,565.977 377.99,565.105 377.481,563.676C376.971,562.247 376.428,560.459 375.853,558.311C375.277,556.164 374.706,553.799 374.138,551.217C373.571,548.635 373.054,546.032 372.588,543.406C372.121,540.78 371.743,538.275 371.452,535.89C371.161,533.506 371.006,531.45 370.987,529.722L370.941,527.881C371.569,526.874 372.02,526.035 372.385,525.23C373.116,523.621 373.539,522.671 373.652,522.382C373.714,522.101 373.67,521.838 373.52,521.593C373.371,521.347 373.167,521.179 372.909,521.087C372.65,520.995 372.378,520.986 372.093,521.061C371.808,521.136 371.609,521.318 371.495,521.607L370.815,522.899L370.941,527.881L369.166,530.473C367.752,532.359 366.008,534.138 363.935,535.81C361.863,537.481 359.459,538.546 356.724,539.004C354.567,539.365 352.572,539.077 350.739,538.14C348.906,537.203 347.239,535.805 345.739,533.948C344.449,532.351 343.268,530.507 342.306,528.528L343.353,526.965C343.445,526.788 343.473,526.59 343.391,526.221L341.432,526.018C341.663,525.586 341.873,525.388 342.103,525.309C342.41,525.204 342.673,525.241 342.892,525.42C343.111,525.6 343.274,525.843 343.379,526.15L343.391,526.221L343.721,526.255C345.674,521.489 347.459,516.918 349.001,512.661L348.551,511.252L347.809,508.302C349.653,502.906 351.197,497.988 352.498,493.396C353.662,489.362 354.639,485.426 355.43,481.59C356.221,477.753 356.683,474.377 356.817,471.462C356.951,468.547 356.639,466.274 355.879,464.643C355.12,463.013 353.767,462.361 351.821,462.686C349.874,463.012 348.328,464.271 347.18,466.464C346.033,468.657 345.242,471.439 344.805,474.811C344.369,478.182 344.245,481.961 344.431,486.148C344.618,490.334 345.068,494.558 345.781,498.819C346.316,502.014 346.969,505.144 347.809,508.302C345.962,513.732 343.783,519.685 341.327,526.007L341.432,526.018L341.288,526.257L341.227,526.34L341.677,527.368L342.306,528.528L342.283,528.564C341.648,529.454 340.785,530.518 339.694,531.755C338.603,532.992 337.326,534.328 335.863,535.762C334.399,537.197 332.802,538.559 331.071,539.849C329.341,541.139 327.502,542.272 325.556,543.246C323.611,544.221 321.612,544.879 319.561,545.223C316.457,545.742 313.682,545.558 311.235,544.669C308.788,543.781 306.683,542.511 304.92,540.859C303.487,539.517 302.277,538.013 301.38,536.478L302.049,535.094C302.355,534.34 302.504,533.936 302.495,533.884C302.442,533.568 302.28,533.325 302.008,533.154C301.736,532.983 301.469,532.92 301.206,532.964C300.943,533.008 300.704,533.116 300.489,533.287C300.274,533.458 300.158,533.653 300.141,533.872L300.109,533.921L300.641,535.167L301.38,536.478ZM870.492,417.99L870.458,535.801L741.014,557.517L819.924,502.364C821.429,502.04 822.521,500.716 822.521,499.159L822.501,425.981ZM314.827,507.73C313.039,508.029 311.714,509.075 310.851,510.869C309.989,512.663 309.545,514.778 309.52,517.216C309.496,519.653 309.872,522.226 310.65,524.935C311.428,527.644 312.541,530.094 313.989,532.285C314.935,531.153 315.962,529.859 317.07,528.403C318.179,526.947 319.199,525.451 320.132,523.916C321.065,522.381 321.853,520.87 322.496,519.384C323.14,517.897 323.443,516.562 323.408,515.379C323.398,513.704 323.14,512.327 322.635,511.249C322.131,510.171 321.479,509.347 320.681,508.778C319.883,508.209 318.97,507.848 317.944,507.695C316.919,507.542 315.88,507.554 314.827,507.73ZM260.69,480.857C259.059,481.129 257.747,481.93 256.752,483.259C255.758,484.588 254.977,486.301 254.408,488.397C253.839,490.493 253.486,492.904 253.347,495.631C253.209,498.358 253.222,501.262 253.386,504.344C253.55,507.426 253.813,510.613 254.175,513.905C254.537,517.197 254.96,520.452 255.444,523.669C256.485,520.521 257.494,517.257 258.469,513.876C259.444,510.495 260.31,507.187 261.067,503.951C261.823,500.715 262.446,497.65 262.935,494.757C263.424,491.863 263.681,489.359 263.706,487.246C263.731,485.133 263.51,483.494 263.045,482.328C262.579,481.162 261.794,480.672 260.69,480.857ZM503.8,476.107C502.011,476.406 500.686,477.452 499.823,479.246C498.961,481.04 498.517,483.155 498.493,485.593C498.468,488.03 498.844,490.603 499.622,493.312C500.4,496.021 501.513,498.471 502.961,500.662C503.907,499.53 504.934,498.236 506.043,496.78C507.151,495.324 508.171,493.828 509.104,492.293C510.037,490.758 510.825,489.247 511.468,487.761C512.112,486.274 512.416,484.939 512.38,483.755C512.37,482.081 512.113,480.704 511.608,479.626C511.103,478.548 510.451,477.724 509.653,477.155C508.855,476.586 507.943,476.224 506.917,476.072C505.891,475.919 504.852,475.931 503.8,476.107ZM544.987,469.214C543.199,469.514 541.873,470.56 541.011,472.354C540.148,474.147 539.705,476.263 539.68,478.7C539.655,481.138 540.032,483.711 540.81,486.42C541.587,489.128 542.7,491.578 544.148,493.769C545.095,492.638 546.122,491.344 547.23,489.888C548.338,488.431 549.359,486.936 550.291,485.401C551.224,483.866 552.012,482.355 552.656,480.868C553.299,479.382 553.603,478.047 553.567,476.863C553.557,475.188 553.3,473.812 552.795,472.734C552.29,471.656 551.639,470.832 550.84,470.263C550.042,469.693 549.13,469.332 548.104,469.179C547.078,469.027 546.039,469.038 544.987,469.214ZM531.083,497.153L528.666,500.132C527.575,501.369 526.298,502.705 524.835,504.139C523.372,505.574 521.775,506.936 520.044,508.226C518.313,509.516 516.475,510.648 514.529,511.623C512.583,512.597 510.584,513.256 508.533,513.6C505.429,514.119 502.654,513.935 500.207,513.046C497.76,512.158 495.655,510.888 493.892,509.236C492.128,507.585 490.702,505.687 489.614,503.544C488.525,501.401 487.814,499.33 487.479,497.331C487.136,495.28 487.161,493.005 487.553,490.506C487.946,488.006 488.749,485.614 489.962,483.33C491.175,481.045 492.826,479.038 494.916,477.309C497.006,475.581 499.551,474.465 502.549,473.964C504.969,473.559 506.974,473.588 508.566,474.052C510.158,474.515 511.414,475.238 512.335,476.219C513.257,477.201 513.893,478.338 514.245,479.631C514.596,480.924 514.768,482.193 514.76,483.438C514.665,484.806 514.26,486.347 513.547,488.062C512.833,489.776 511.973,491.502 510.966,493.239C509.959,494.976 508.877,496.671 507.721,498.324C506.564,499.978 505.522,501.423 504.593,502.66C505.927,504.167 507.458,505.317 509.186,506.109C510.913,506.902 512.829,507.122 514.933,506.77C516.459,506.514 518.063,505.921 519.746,504.991C521.174,504.157 522.811,502.95 524.656,501.371C526.418,499.862 528.202,497.744 530.058,494.912C529.38,493.478 528.917,491.938 528.666,490.439C528.323,488.388 528.348,486.112 528.741,483.613C529.134,481.114 529.937,478.722 531.149,476.437C532.362,474.152 534.014,472.146 536.104,470.417C538.194,468.688 540.738,467.573 543.736,467.071C546.156,466.666 548.162,466.696 549.753,467.159C551.345,467.623 552.601,468.346 553.523,469.327C554.444,470.308 555.08,471.446 555.432,472.739C555.784,474.032 555.955,475.301 555.947,476.546C555.852,477.914 555.447,479.455 554.734,481.17C554.02,482.884 553.16,484.61 552.153,486.346C551.146,488.083 550.064,489.778 548.908,491.432C547.752,493.085 546.709,494.531 545.781,495.767C547.114,497.275 548.645,498.424 550.373,499.217C552.101,500.009 554.017,500.229 556.121,499.877C557.646,499.622 559.25,499.029 560.933,498.099C562.362,497.265 563.998,496.058 565.843,494.479C567.605,492.969 569.39,490.852 571.217,488.058L571.032,485.499C571.044,483.145 571.432,480.7 572.198,478.166C572.963,475.632 574.139,473.123 575.724,470.641C577.309,468.158 579.073,466.173 581.014,464.686C582.955,463.199 584.912,462.046 586.884,461.23C586.936,461.221 587.18,461.14 587.614,460.986C588.048,460.832 588.374,460.926 588.594,461.268C588.874,461.654 588.809,462.07 588.397,462.518C587.433,463.22 586.498,464.093 585.591,465.137C584.684,466.181 583.876,467.33 583.167,468.584C582.457,469.838 581.849,471.13 581.341,472.459C580.833,473.787 580.497,475.087 580.331,476.359C580.017,479.007 580.146,481.311 580.717,483.27C581.288,485.229 582.085,486.84 583.107,488.102C584.129,489.364 585.268,490.268 586.522,490.815C587.776,491.362 588.955,491.544 590.06,491.359C592.059,491.024 593.566,490.096 594.583,488.574C595.599,487.052 596.321,485.309 596.749,483.345C595.854,481.548 595.03,479.455 594.279,477.066C593.528,474.678 592.888,471.905 592.36,468.749C591.304,462.437 590.787,456.278 590.809,450.272C590.831,444.266 591.481,438.858 592.758,434.047C594.035,429.237 595.988,425.234 598.616,422.036C601.244,418.838 604.662,416.887 608.871,416.183C610.554,415.901 611.819,416.19 612.665,417.049C613.512,417.907 614.063,419.181 614.319,420.868C614.574,422.556 614.575,424.583 614.323,426.951C614.07,429.318 613.651,431.903 613.065,434.705C612.479,437.507 611.778,440.422 610.96,443.452C610.142,446.482 609.322,449.499 608.5,452.502C607.678,455.506 606.879,458.411 606.105,461.217C605.331,464.023 604.708,466.602 604.236,468.952C604.799,471.669 605.612,474.102 606.674,476.249C607.737,478.397 608.698,480.102 609.558,481.364C609.786,481.758 610.021,482.111 610.262,482.422C610.503,482.733 610.729,483.033 610.94,483.322C611.01,483.419 611.076,483.489 611.138,483.533C611.146,483.585 611.177,483.607 611.23,483.598L611.243,483.677C612.419,485.211 613.647,486.411 614.928,487.278C616.208,488.146 617.559,488.46 618.979,488.223C620.031,488.047 620.967,487.66 621.786,487.064C622.606,486.467 623.309,485.822 623.896,485.129C624.579,484.366 625.166,483.51 625.657,482.563L627.509,479.09C627.64,478.581 627.995,478.278 628.573,478.181C629.31,478.058 629.74,478.365 629.863,479.101C629.872,479.154 629.723,479.557 629.417,480.312C629.11,481.066 628.648,482.022 628.031,483.18C627.414,484.337 626.638,485.603 625.706,486.975C624.773,488.348 623.706,489.649 622.506,490.877C621.305,492.105 619.947,493.198 618.431,494.155C616.914,495.111 615.262,495.739 613.474,496.039C611.843,496.311 610.278,496.087 608.778,495.364C607.278,494.642 605.897,493.738 604.633,492.651C603.589,491.907 602.57,491.063 601.574,490.121C600.578,489.18 599.584,488.008 598.593,486.605C598.339,487.351 597.899,488.438 597.273,489.868C596.647,491.297 595.811,492.762 594.764,494.262C593.717,495.762 592.471,497.12 591.025,498.335C589.579,499.551 587.909,500.317 586.015,500.634C583.701,501.021 581.612,500.897 579.748,500.263C577.885,499.628 576.308,498.608 575.018,497.202C573.728,495.795 572.739,494.082 572.049,492.061L571.762,490.887L572.442,490.049C573.077,489.158 573.434,488.625 573.513,488.45C573.636,488.213 573.644,487.941 573.539,487.634C573.433,487.328 573.271,487.084 573.052,486.905C572.832,486.725 572.569,486.688 572.263,486.794C571.956,486.899 571.684,487.215 571.448,487.741L571.217,488.058L571.278,488.905L571.762,490.887L569.853,493.24C568.763,494.477 567.486,495.812 566.022,497.247C564.559,498.681 562.962,500.044 561.231,501.334C559.5,502.624 557.662,503.756 555.716,504.731C553.77,505.705 551.772,506.364 549.72,506.707C546.617,507.227 543.841,507.042 541.395,506.154C538.948,505.265 536.843,503.995 535.079,502.344C533.502,500.866 532.194,499.192 531.083,497.153L531.255,496.941C531.89,496.051 532.247,495.518 532.326,495.342C532.448,495.105 532.457,494.834 532.352,494.527C532.246,494.22 532.084,493.977 531.864,493.797C531.645,493.618 531.382,493.581 531.075,493.686C530.768,493.791 530.497,494.107 530.26,494.633L530.058,494.912L530.801,496.652L531.083,497.153ZM470.642,533.405C470.775,535.816 470.739,538.026 470.535,540.034C470.33,542.042 469.91,543.734 469.275,545.111C468.641,546.488 467.826,547.517 466.831,548.197C465.836,548.877 464.668,549.086 463.327,548.824C462.774,548.754 462.1,547.718 461.306,545.715C460.511,543.712 459.654,541.016 458.736,537.628C457.817,534.24 456.89,530.312 455.953,525.846C455.016,521.379 454.178,516.612 453.438,511.545C452.698,506.477 452.096,501.265 451.633,495.908C451.169,490.551 450.926,485.306 450.905,480.172C450.885,475.039 451.136,470.157 451.659,465.527C452.182,460.897 453.086,456.772 454.373,453.15C455.659,449.528 457.337,446.543 459.404,444.196C461.472,441.85 464.058,440.417 467.161,439.897C469.16,439.563 470.644,440.031 471.614,441.302C472.584,442.572 473.168,444.367 473.367,446.686C473.565,449.005 473.458,451.754 473.043,454.933C472.629,458.111 472.024,461.443 471.228,464.929C470.433,468.415 469.51,471.949 468.46,475.531C467.41,479.114 466.387,482.449 465.389,485.536C465.792,485.035 466.204,484.588 466.625,484.193C467.045,483.798 467.492,483.399 467.965,482.995C468.956,482.127 470.292,481.714 471.976,481.757C473.659,481.799 475.369,482 477.106,482.358C478.842,482.717 480.394,483.106 481.762,483.526C483.13,483.946 483.976,484.155 484.301,484.155C484.616,484.102 484.855,483.995 485.017,483.833C485.179,483.67 485.328,483.51 485.464,483.352C485.6,483.194 485.745,483.089 485.898,483.036C486.051,482.984 486.251,483.045 486.497,483.22C486.742,483.395 486.889,483.627 486.938,483.917C486.986,484.206 486.91,484.638 486.708,485.212C486.507,485.787 486.163,486.561 485.677,487.534C485.191,488.508 484.506,489.745 483.622,491.245C483.035,492.262 482.272,492.876 481.334,493.087C480.396,493.298 479.368,493.295 478.25,493.076C477.132,492.858 475.953,492.514 474.712,492.046C473.471,491.578 472.287,491.127 471.16,490.694C470.033,490.261 468.978,489.937 467.996,489.723C467.014,489.509 466.229,489.586 465.642,489.954C465.107,490.314 464.682,490.683 464.367,491.06C464.052,491.437 463.789,491.806 463.579,492.165C464.283,497.022 465.029,501.724 465.817,506.269C466.605,510.815 467.353,514.962 468.061,518.709C468.769,522.457 469.355,525.631 469.817,528.23C470.279,530.83 470.554,532.555 470.642,533.405ZM467.689,443.053C465.638,443.397 464.102,444.803 463.082,447.272C462.062,449.74 461.418,452.917 461.149,456.801C460.879,460.686 460.9,465.089 461.21,470.012C461.52,474.935 462.006,480.018 462.667,485.261C463.655,482.122 464.626,478.877 465.58,475.527C466.533,472.177 467.393,468.91 468.158,465.727C468.923,462.544 469.528,459.536 469.973,456.703C470.419,453.871 470.656,451.412 470.685,449.325C470.715,447.238 470.499,445.625 470.038,444.485C469.577,443.346 468.794,442.868 467.689,443.053ZM673.047,460.36C672.653,461.693 672.258,462.856 671.827,464.008C671.062,466.056 670.267,467.933 669.444,469.639C668.621,471.345 667.929,472.623 667.369,473.474C667.614,473.649 667.796,473.848 667.915,474.072C668.033,474.295 668.123,474.51 668.185,474.716C668.246,474.922 668.332,475.111 668.442,475.282C668.551,475.452 668.773,475.564 669.106,475.617C669.421,474.915 669.988,473.617 670.807,471.722C671.625,469.828 672.472,467.699 673.347,465.336L674.389,462.301L673.318,460.798L673.047,460.36L673.783,457.76C674.321,455.642 674.626,453.752 674.7,452.091C674.773,450.429 674.527,449.118 673.961,448.159C673.395,447.199 672.375,446.842 670.902,447.089C669.429,447.335 668.676,448.164 668.642,449.576C668.608,450.988 669.01,452.664 669.848,454.606C670.621,456.394 671.663,458.286 673.047,460.36ZM754.559,460.566L753.802,462.133C753.185,463.29 752.423,464.554 751.516,465.922C750.61,467.29 749.543,468.591 748.316,469.824C747.089,471.056 745.731,472.149 744.241,473.101C742.751,474.053 741.112,474.679 739.324,474.979C737.377,475.304 735.624,475.003 734.062,474.074C732.501,473.146 731.104,471.906 729.871,470.355C728.638,468.804 727.563,467.064 726.645,465.136C725.728,463.208 724.929,461.422 724.248,459.778C723.568,458.135 722.999,456.756 722.542,455.643C722.086,454.53 721.699,454 721.384,454.052C721.068,454.105 720.784,454.748 720.53,455.98C720.277,457.212 720.004,458.731 719.711,460.537C719.419,462.344 719.047,464.326 718.597,466.483C718.147,468.64 717.592,470.653 716.931,472.521C716.27,474.389 715.445,476 714.455,477.356C713.465,478.711 712.26,479.507 710.84,479.745L709.498,479.97C707.71,480.269 706.072,479.935 704.585,478.967C703.099,477.999 701.772,476.693 700.604,475.05C699.437,473.407 698.388,471.582 697.458,469.574C696.527,467.567 695.715,465.702 695.021,463.98C694.327,462.257 693.723,460.831 693.21,459.7C692.696,458.569 692.281,458.03 691.966,458.083C691.597,458.145 691.328,458.798 691.158,460.043C690.988,461.288 690.803,462.847 690.602,464.719C690.402,466.591 690.123,468.639 689.765,470.862C689.406,473.085 688.877,475.174 688.177,477.13C687.477,479.085 686.542,480.769 685.373,482.182C684.203,483.594 682.698,484.454 680.857,484.763C679.384,485.009 677.998,484.889 676.7,484.404C675.402,483.918 674.183,483.176 673.043,482.177C671.902,481.178 670.869,480.012 669.943,478.68C669.017,477.348 668.164,475.963 667.382,474.526C665.574,471.152 663.998,467.225 662.653,462.745C661.853,459.905 661.549,457.279 661.74,454.868C661.836,453.824 662.042,452.789 662.357,451.763C662.671,450.737 663.188,449.786 663.907,448.908C664.625,448.031 665.539,447.27 666.647,446.625C667.756,445.98 669.152,445.516 670.835,445.234C673.097,444.856 674.649,445.245 675.492,446.402C676.334,447.559 676.747,449.139 676.731,451.142C676.715,453.146 676.366,455.421 675.683,457.969C675.3,459.402 674.885,460.806 674.389,462.301C675.551,463.976 676.691,465.445 677.853,466.812C679.402,468.635 680.843,470.138 682.176,471.32C683.51,472.503 684.492,473.042 685.123,472.936C685.754,472.831 686.278,471.999 686.693,470.443C687.109,468.886 687.504,466.968 687.88,464.688C688.255,462.408 688.626,459.94 688.993,457.283C689.359,454.626 689.783,452.149 690.264,449.851C690.744,447.554 691.324,445.605 692.002,444.004C692.681,442.403 693.52,441.519 694.519,441.352L694.598,441.339C694.703,441.321 694.811,441.317 694.92,441.326C695.03,441.334 695.137,441.33 695.243,441.312C696.339,441.399 697.435,442.054 698.532,443.276C699.629,444.499 700.706,446.008 701.764,447.805C702.821,449.602 703.851,451.552 704.852,453.656C705.853,455.759 706.84,457.784 707.815,459.73C709.079,462.114 710.266,464.119 711.376,465.745C712.487,467.37 713.493,468.135 714.396,468.038L714.554,468.011C715.062,467.818 715.511,467.188 715.901,466.123C716.29,465.057 716.625,463.906 716.905,462.67C717.263,461.258 717.543,459.697 717.743,457.987L718.07,455.094C718.314,452.998 718.567,450.874 718.829,448.721C719.09,446.568 719.425,444.606 719.831,442.835C720.238,441.063 720.763,439.597 721.406,438.435C722.05,437.272 722.845,436.612 723.792,436.454C724.949,436.26 726.074,436.923 727.167,438.444C728.26,439.964 729.339,441.893 730.406,444.229C731.473,446.565 732.564,449.126 733.679,451.914C734.795,454.701 735.939,457.254 737.111,459.572C738.283,461.891 739.507,463.795 740.784,465.285C742.06,466.774 743.409,467.4 744.829,467.163C745.881,466.987 746.817,466.6 747.636,466.003C748.456,465.407 749.159,464.762 749.746,464.069C750.377,463.314 750.937,462.463 751.428,461.516L753.28,458.043L753.3,458.015C752.517,456.408 751.996,454.736 751.725,453.112C751.381,451.06 751.406,448.785 751.799,446.286C752.192,443.787 752.995,441.395 754.208,439.11C755.421,436.825 757.072,434.818 759.162,433.09C761.252,431.361 763.796,430.246 766.795,429.744C769.214,429.339 771.22,429.369 772.812,429.832C774.403,430.296 775.66,431.018 776.581,432C777.502,432.981 778.139,434.118 778.49,435.411C778.842,436.705 779.014,437.974 779.006,439.219C778.91,440.587 778.506,442.128 777.792,443.842C777.079,445.557 776.219,447.283 775.211,449.019C774.204,450.756 773.122,452.451 771.966,454.105C770.81,455.758 769.767,457.203 768.839,458.44C770.173,459.947 771.703,461.097 773.431,461.89C775.159,462.682 777.075,462.902 779.179,462.55C780.704,462.295 782.309,461.702 783.991,460.771C785.42,459.937 787.057,458.731 788.901,457.151C790.746,455.572 792.614,453.326 794.506,450.414C794.743,449.888 795.014,449.572 795.321,449.466C795.628,449.361 795.891,449.398 796.11,449.578C796.329,449.757 796.492,450 796.597,450.307C796.703,450.614 796.694,450.886 796.571,451.123C796.493,451.298 796.136,451.831 795.501,452.721C794.866,453.612 794.003,454.675 792.912,455.912C791.821,457.149 790.544,458.485 789.081,459.92C787.617,461.354 786.02,462.717 784.289,464.007C782.559,465.297 780.72,466.429 778.774,467.403C776.829,468.378 774.83,469.037 772.778,469.38C769.675,469.899 766.9,469.715 764.453,468.827C762.006,467.938 759.901,466.668 758.138,465.017C756.705,463.675 755.495,462.171 754.559,460.566L755.188,459.265C755.494,458.51 755.643,458.107 755.634,458.054C755.511,457.318 755.107,457.007 754.423,457.121C754.16,457.165 753.922,457.273 753.707,457.444L753.3,458.015L753.859,459.325L754.559,460.566ZM603.68,462.231C604.405,458.811 605.205,455.352 606.079,451.853C606.954,448.354 607.783,444.984 608.565,441.744C609.348,438.504 610.045,435.481 610.657,432.674C611.269,429.868 611.675,427.448 611.875,425.414C612.076,423.38 611.989,421.812 611.616,420.712C611.242,419.612 610.503,419.154 609.399,419.339C607.768,419.612 606.442,420.415 605.422,421.749C604.401,423.082 603.594,424.799 602.999,426.899C602.404,429 602.011,431.418 601.82,434.153C601.629,436.889 601.589,439.802 601.701,442.893C601.812,445.983 602.049,449.175 602.411,452.467C602.772,455.759 603.195,459.014 603.68,462.231ZM768.045,431.887C766.257,432.186 764.932,433.233 764.069,435.026C763.207,436.82 762.763,438.936 762.738,441.373C762.714,443.811 763.09,446.384 763.868,449.093C764.646,451.801 765.759,454.251 767.207,456.442C768.153,455.311 769.18,454.017 770.288,452.56C771.396,451.104 772.417,449.609 773.35,448.074C774.282,446.539 775.071,445.028 775.714,443.541C776.358,442.055 776.661,440.719 776.626,439.536C776.616,437.861 776.358,436.485 775.853,435.407C775.349,434.329 774.697,433.505 773.899,432.935C773.1,432.366 772.188,432.005 771.162,431.852C770.136,431.699 769.097,431.711 768.045,431.887ZM953.904,573.129L918.63,522.841L948.518,453.195C948.992,452.096 948.825,450.819 948.087,449.877C947.347,448.928 946.159,448.468 944.968,448.655L877.056,459.67L877.073,414.116C877.073,413.146 876.646,412.228 875.909,411.604C875.168,410.979 874.196,410.709 873.243,410.87L822.501,419.321L822.494,374.723C822.494,373.753 822.064,372.838 821.33,372.214C820.593,371.589 819.62,371.316 818.661,371.48L210.992,473.177C209.408,473.44 208.247,474.812 208.244,476.416L208.207,523.151L149.419,532.791C147.828,533.05 146.661,534.426 146.661,536.037L146.671,583.386L72.25,595.695C71.1339,595.879 70.1918,596.623 69.7583,597.668C69.318,598.705 69.4477,599.9 70.0962,600.825L105.366,651.117L75.4825,720.756C75.008,721.862 75.1753,723.139 75.9228,724.087C76.5508,724.886 77.5066,725.344 78.5033,725.344C78.6876,725.344 78.8719,725.327 79.0562,725.296L259.113,694.678C260.741,694.398 261.871,692.968 261.837,691.364C261.837,691.231 261.82,691.094 261.806,690.961C261.803,690.934 261.806,690.91 261.803,690.886C261.799,690.876 261.796,690.859 261.792,690.848C261.772,690.695 261.772,690.541 261.728,690.391L249.61,646.806L319.29,635.088C319.304,635.085 319.317,635.078 319.338,635.075C319.457,635.051 319.567,635.013 319.683,634.979C319.778,634.952 319.877,634.931 319.966,634.894C320.055,634.863 320.14,634.812 320.229,634.767C320.335,634.713 320.44,634.665 320.539,634.604C320.611,634.552 320.676,634.494 320.744,634.443C320.843,634.361 320.949,634.289 321.038,634.201C321.044,634.191 321.058,634.187 321.068,634.177C321.092,634.153 321.106,634.115 321.133,634.092C321.283,633.935 321.413,633.76 321.529,633.583C321.57,633.511 321.608,633.446 321.645,633.375C321.744,633.19 321.823,632.999 321.884,632.794C321.898,632.747 321.922,632.702 321.932,632.655C321.997,632.409 322.024,632.153 322.031,631.89C322.031,631.818 322.021,631.747 322.017,631.678C322.01,631.552 322.014,631.429 321.993,631.303C321.983,631.231 321.952,631.166 321.939,631.098C321.929,631.054 321.932,631.009 321.922,630.965L310.009,588.117L721.142,518.98L723.903,563.367C723.907,563.412 723.92,563.446 723.924,563.487C723.934,563.562 723.927,563.633 723.944,563.705C723.968,563.859 724.016,564.009 724.06,564.156C724.067,564.183 724.074,564.217 724.081,564.241C724.166,564.487 724.289,564.719 724.429,564.931C724.456,564.978 724.494,565.023 724.521,565.067C724.654,565.255 724.808,565.429 724.978,565.583C725.002,565.606 725.026,565.63 725.05,565.654C725.245,565.818 725.456,565.955 725.688,566.074C725.712,566.084 725.736,566.108 725.76,566.125C725.798,566.139 725.839,566.149 725.873,566.163C726.023,566.234 726.176,566.279 726.337,566.323C726.398,566.344 726.456,566.364 726.525,566.378C726.736,566.426 726.958,566.449 727.183,566.449L727.194,566.449C727.371,566.449 727.549,566.436 727.733,566.405L776.81,558.172L778.049,603.539C778.083,604.747 778.779,605.839 779.861,606.382C780.326,606.621 780.834,606.737 781.339,606.737C781.565,606.737 781.786,606.682 782.008,606.635C782.152,606.655 782.298,606.679 782.445,606.679C782.63,606.679 782.807,606.662 782.995,606.631L951.757,578.253C952.87,578.062 953.812,577.318 954.245,576.28C954.675,575.242 954.549,574.054 953.904,573.129Z" style="fill:black;"/>
        </g>
        <g id="path2360">
            <path d="M596.649,383.781C581.513,386.237 563.8,379.569 561.843,367.512L306.353,408.977C270.088,414.863 264.678,381.529 300.943,375.644L556.434,334.178C554.528,322.437 566.277,310.042 586.368,306.782L726.967,283.963C739.205,281.977 741.614,293.827 728.429,295.967L624.491,312.836L626.112,322.82L730.995,305.798C742.244,303.972 744.83,315.336 732.386,317.356L627.975,334.302L629.65,344.618L734.41,327.616C746.155,325.71 748.437,336.782 735.746,338.842L631.459,355.767L633.106,365.917L737.867,348.915C749.489,347.029 751.851,358.598 739.284,360.638Z" style="fill:black;fill-rule:nonzero;"/>
        </g>
        <g id="path2362">
            <path d="M317.707,652.937L714.421,588.102C749.883,582.307 755.166,617.93 720.229,623.64L562.822,649.365L565.915,668.289L326.607,707.399C270.901,716.503 262.001,662.041 317.707,652.937Z" style="fill:black;fill-rule:nonzero;"/>
        </g>
    </g>
</svg>
