<?xml version="1.0" standalone="no"?>
<!DOCTYPE svg PUBLIC "-//W3C//DTD SVG 1.1//EN" "http://www.w3.org/Graphics/SVG/1.1/DTD/svg11.dtd">
<svg width="100%" height="100%" viewBox="0 0 1500 380" version="1.1" xmlns="http://www.w3.org/2000/svg" xmlns:xlink="http://www.w3.org/1999/xlink" xml:space="preserve" style="fill-rule:evenodd;clip-rule:evenodd;stroke-linejoin:round;stroke-miterlimit:1.41421;">
    <g>
        <path d="M190.372,29.813C101.699,29.813 29.826,101.686 29.826,190.36C29.826,256.25 69.556,312.798 126.33,337.533L128.422,297.008C128.422,264.766 104.592,275.096 104.592,252.543C104.592,239.902 104.987,213.563 104.987,193.788C104.987,141.091 127.364,90.115 132.861,78.74C138.391,67.377 151.398,54.98 151.538,66.912C151.538,84.224 152.276,285.53 152.276,285.53L152.241,285.53L154.704,346.771C166.201,349.397 178.099,350.896 190.373,350.896C197.101,350.896 203.677,350.35 210.195,349.547L215.505,246.641C202.399,243.772 191.222,235.429 184.21,224.961C175.525,211.947 190.885,96.894 190.885,96.894L200.889,96.894L200.889,204.872L210.811,204.872L210.811,96.894L221.651,96.894L221.651,204.872L231.54,204.872L231.54,96.894L242.798,96.894L242.798,204.872L252.709,204.872L252.709,96.894L260.377,96.894C260.377,96.894 275.726,211.948 267.046,224.961C260.099,235.324 249.037,243.643 236.094,246.594C235.862,246.664 235.653,246.757 235.653,246.757L240.673,342.75C304.668,321.64 350.922,261.443 350.922,190.36C350.907,101.687 279.034,29.813 190.372,29.813Z" style="fill:white;fill-rule:nonzero;"/>
        <path d="M190.372,0C85.415,0 0,85.397 0,190.36C0,295.3 85.415,380.721 190.372,380.721C295.324,380.721 380.722,295.3 380.722,190.36C380.721,85.397 295.324,0 190.372,0ZM190.372,366.523C93.228,366.523 14.192,287.493 14.192,190.36C14.192,93.216 93.228,14.18 190.372,14.18C287.505,14.18 366.547,93.216 366.547,190.36C366.546,287.493 287.504,366.523 190.372,366.523Z" style="fill:white;fill-rule:nonzero;"/>
        <text x="415.783px" y="272.416px" style="font-family:DIN Condensed;font-size:288px;font-weight:700;font-stretch:condensed;fill:white;">H<tspan x="524.071px 616.231px 655.399px 753.031px 792.199px 879.175px 971.335px 1063.49px 1161.13px 1200.29px 1346.02px " y="272.416px 272.416px 272.416px 272.416px 272.416px 272.416px 272.416px 272.416px 272.416px 272.416px 272.416px ">elp Feed Me</tspan></text>
    </g>
</svg>
